<svg xmlns="http://www.w3.org/2000/svg" width="20" height="20" fill="none">
  <path fill="#A01414" fill-rule="evenodd"
    d="M10 7.088c.539 0 .975.437.975.975v2.926a.975.975 0 1 1-1.95 0V8.063c0-.538.436-.975.975-.975ZM10 14.89a.975.975 0 1 0 0-1.95.975.975 0 0 0 0 1.95Z"
    clip-rule="evenodd" />
  <path fill="#A01414" fill-rule="evenodd"
    d="M8.319 2.171c.754-1.282 2.608-1.282 3.362 0l8.047 13.68c.765 1.3-.173 2.939-1.681 2.939H1.953c-1.508 0-2.446-1.639-1.68-2.94L8.318 2.172Zm9.728 14.669L10 3.16 1.953 16.84h16.094Z"
    clip-rule="evenodd" />
</svg>