<svg xmlns="http://www.w3.org/2000/svg" width="20" height="20" fill="none">
  <path fill="#8B5D9A"
    d="M18.242 3.149H1.758A1.76 1.76 0 0 0 0 4.907v10.186c0 .97.789 1.758 1.758 1.758h16.484A1.76 1.76 0 0 0 20 15.093V4.907a1.76 1.76 0 0 0-1.758-1.758Zm-.23 1.172-.234.195-7.08 5.896a1.09 1.09 0 0 1-1.395 0L2.222 4.516l-.235-.195h16.026Zm-16.84.846 5.77 4.804-5.77 3.84V5.166Zm17.07 10.512H1.758a.587.587 0 0 1-.574-.469l6.697-4.457.672.56a2.257 2.257 0 0 0 2.894 0l.672-.56 6.697 4.457a.587.587 0 0 1-.574.47Zm.586-1.869-5.77-3.84 5.77-4.803v8.643Z" />
</svg>