<svg xmlns="http://www.w3.org/2000/svg" width="20" height="20" fill="none">
  <path fill="#8B5D9A" d="M14.453 14.297a.781.781 0 1 0 0-1.563.781.781 0 0 0 0 1.563Z" />
  <path fill="#8B5D9A"
    d="M17.969 14.14c.431 0 .781-.35.781-.78v-2.891a3.129 3.129 0 0 0-3.125-3.125h-.939V4.589C14.686 2.059 12.583 0 10 0 7.414 0 5.31 2.058 5.31 4.589v2.755h-.936a3.129 3.129 0 0 0-3.125 3.125v6.406A3.129 3.129 0 0 0 4.375 20h11.25a3.129 3.129 0 0 0 3.125-3.125.781.781 0 1 0-1.563 0c0 .862-.7 1.563-1.562 1.563H4.375c-.862 0-1.563-.701-1.563-1.563v-6.406c0-.862.701-1.563 1.563-1.563h11.25c.862 0 1.563.701 1.563 1.563v2.89c0 .432.35.782.78.782Zm-4.845-6.796h-6.25V4.589c0-1.669 1.401-3.027 3.125-3.027 1.723 0 3.125 1.358 3.125 3.027v2.755Z" />
  <path fill="#8B5D9A"
    d="M8.555 14.297a.781.781 0 1 0 0-1.563.781.781 0 0 0 0 1.563ZM5.625 14.297a.781.781 0 1 0 0-1.563.781.781 0 0 0 0 1.563ZM11.484 14.297a.781.781 0 1 0 0-1.563.781.781 0 0 0 0 1.563Z" />
</svg>