<svg xmlns="http://www.w3.org/2000/svg" width="300" height="800" viewBox="0 0 205.62 800">
  <defs>
    <linearGradient id="advertiser" x1="0" x2="300" y1="0" y2="0"
      gradientUnits="userSpaceOnUse">
      <stop offset="0" stop-color="#FFC700" />
      <stop offset="1" stop-color="#FF005C" />
    </linearGradient>
  </defs>

  <path
    fill="url(#advertiser)"
    fill-rule="evenodd"
    d="M45.53.32c-2.56.44-17.14 8.94-18.32 10.69-.5.69-2.88 3.44-5.32 6.07-6 6.57-9.76 11.63-12.01 16.13-1.75 3.63-1.81 4.31-2.75 19.7-.56 8.76-1.19 17.64-1.38 19.7-.25 2.06-.56 19.07-.81 37.83-.44 31.39-.56 34.64-1.81 40.96-.75 3.75-1.63 9.38-2.06 12.51-.38 3.06-.81 6.75-1 8.13-.25 2.06.13 3.31 2.25 7.32 1.44 2.69 3.69 6.57 5 8.63 2.31 3.5 2.44 4 2.13 7.38-.19 2.06.13 5.38.69 7.94.5 2.38 2.19 10.19 3.75 17.32 1.5 7.07 3.75 16.07 5 20.01 2.38 7.63 6.88 24.95 9.26 35.52 1.38 6.38 1.44 7.19 1.25 32.83-.19 25.64-.19 26.7 1.69 44.71 2.44 22.95 2.94 29.58 4.13 55.34 1.06 23.33 3.19 52.09 4.06 55.34.69 2.63 6.13 12.32 9.26 16.38 3.13 4.19 4.25 4.5 14.95 4.13 8.63-.31 9.26-.44 10.13-1.69.81-1.31 1.13-.5 3.94 11.63 1.69 7.13 4.44 19.82 6.13 28.14 2.94 14.51 3.06 15.32 2.13 17.76-.5 1.44-1.31 6.44-1.81 11.13-2.69 24.2-5 35.64-8.82 43.96-3.63 7.94-6.19 14.63-7.07 18.45-1.75 7.63-5.69 28.58-6.32 33.64-.69 5.88-5.63 30.89-7.13 36.27-2.06 7.38-10.32 26.01-17.51 39.4l-7.75 14.51-3.82 27.08c-2.13 14.95-3.63 27.33-3.38 27.58.56.56 16.63 7.5 16.76 7.25.13-.06 1.94-3.06 4.13-6.69 3.63-5.88 4.56-8.19 9.13-22.51 2.88-8.75 5.75-18.2 6.5-20.95 2.56-9.63 5.13-17.64 10.63-33.39 5.32-15.13 6-16.63 14.26-31.58 4.11-7.47 8.19-14.95 12.26-22.45 1.94-3.69 3.69-6.69 3.75-6.57.94.94 12.32 47.9 15.01 61.78 5.5 28.08 6.44 33.46 7.44 43.15 1.19 11.63 1.63 12.82 5.32 14.63 3.81 1.94 9.13 3.5 11.94 3.5s5.19-1.69 6.63-4.5c1.63-3.13 2.69-9.44 2.13-12.51-.31-1.5-2.81-14.2-5.57-28.33-2.85-14.69-5.69-29.39-8.51-44.09l-3.44-18.45-.63-42.21c-.38-23.2-.44-47.71-.25-54.4l.44-12.19 2.38-4.82c1.38-2.69 3.13-6.63 3.94-8.75 2-5.25 14.2-31.27 30.7-65.41 5.44-11.26 5.5-11.38 7.5-11.38 2.31 0 12.63-2.56 16.01-4 2.56-1.06 2.5-.81 3.38-15.7.81-13.44 2.31-26.01 4.06-33.45 3.06-13.19 7.5-45.65 7.5-55.22 0-6.19-4.75-43.4-7.25-56.41-.19-1.19.81-7 2.81-15.63 4.44-19.45 5-26.39 3.57-45.71-1.56-21.83-2.75-32.46-4.19-37.77-1.25-4.5-13.26-42.96-21.14-67.79-4.75-14.88-7.82-21.01-13.38-27.01-9.19-9.82-20.14-12.01-34.39-6.82-3.38 1.19-6.5 2.19-6.94 2.19-.56 0-1.19-1.31-1.63-3.31-.94-3.88-2.25-6.63-3.44-7.07-1.69-.69-6.25-13.95-7.5-21.95-.56-3.13-.94-9.25-.88-13.76.06-7.75 0-8.25-2.5-15.88-1.44-4.38-2.56-8.51-2.56-9.13 0-2-4.25-9.51-8.44-14.88-5.5-7.07-6.5-7.82-9.32-7.63-2.13.13-2.5-.06-3.44-1.88-.81-1.69-2.25-2.56-8.5-5.44-4.13-1.88-9.07-3.82-10.94-4.38-1.88-.56-4.69-1.5-6.25-2.06C56.3.13 49.11-.37 45.54.31Zm47.15 96.93c-.44 2.06 1.5 7 3.69 9.38.75.81 3.38 2.94 5.75 4.75 4.88 3.69 8.25 7 7.63 7.57-.19.19-3.94-2.63-8.38-6.25-7.25-6-8.07-6.5-8.57-5.38-.31.69-.75 1.25-1.06 1.25-.38 0-3.69-9-3.69-10.13 0-.38 4-2.81 4.82-3 .06 0 0 .81-.19 1.81Zm-55.22 20.82c.69 2.88 2.38 7.69 3.69 10.82 1.31 3.06 2.94 7.13 3.69 9l1.25 3.38-2.13 4.63c-1.19 2.5-2.69 5.32-3.38 6.25-.75.88-1.31 2.13-1.31 2.69 0 .69-2.06 2.38-5.44 4.57-3.06 1.94-7.25 4.88-9.38 6.63-2.5 2.06-3.94 2.81-3.94 2.25 0-2.81 2.81-13.13 4.69-17.32 2.94-6.5 3.38-10.82 1.63-16.07-.75-2.19-1.25-4.07-1.13-4.19.5-.5 4.75 9.69 6.13 14.51 2.13 7.82 2.06 7.69 3.13 5.88 1.31-2.38 1.88-25.01.75-31.58-1.63-10.13-.63-10.94 1.75-1.44Zm-20.51 53.28c.19.5-.63 3.06-1.81 5.82l-2.19 4.88.38-4.38c.25-2.38.69-4.94 1-5.75.56-1.63 2.13-1.94 2.63-.56Zm40.58 67.6c1.88 2.75 5.25 8.57 7.57 12.95 3.69 6.88 4.31 8.63 4.82 12.82.38 2.69 1.06 6.57 1.56 8.63 1.19 4.88 1.25 16.45 0 21.07-.94 3.63-5.07 14.07-6 15.26-.31.38-.88 2.19-1.31 4.06l-.81 3.38-.38-5.32c-.19-2.94-.81-7-1.38-9.07-1.63-6.13-3.44-17.76-4.81-30.83-1.25-11.44-2.31-19.45-4.69-33.58-1.31-7.94-1.25-8.32.56-6.13.81.94 3 4 4.88 6.75Zm-1.94 161.02c-.06 13.82.06 15.26 2.69 32.08.88 5.38.5 5.5-1.25.63-.63-1.81-2.25-4.75-3.56-6.57l-2.5-3.25 1.38-21.95c.75-12.01 1.38-22.45 1.38-23.14.06-.69.5.88 1 3.44.63 3.25.88 9.01.88 18.76Zm15.38 65.29c.44 1.69.94 4.32 1.19 5.75.38 2.5.25 2.69-1.63 3.69-1.06.56-2.06.94-2.19.81-.69-.81-3.44-6.94-4-9.07-.38-1.38-1.13-2.88-1.63-3.31-.5-.44-.94-1.13-.94-1.56 0-.56.94-.56 4.25-.06l4.19.69.75 3.06Z" />
</svg>