<svg xmlns="http://www.w3.org/2000/svg" width="300" height="800" viewBox="0 0 267.22 800">
  <defs>
    <linearGradient id="user" x1="0" x2="300" y1="0" y2="0"
      gradientUnits="userSpaceOnUse">
      <stop offset="0" stop-color="#ee0979" />
      <stop offset="1" stop-color="#ff6a00" />
    </linearGradient>
  </defs>

  <path
    fill="url(#user)"
    fill-rule="evenodd"
    d="M232.48 796.05c-4.82-2.36-9.9-5.83-11.29-7.7-1.4-1.87-4.18-3.4-6.18-3.4-6.38 0-9.76-5.43-9.76-15.7 0-7.04-1.05-10.63-3.95-13.54-2.17-2.17-4.79-8.37-5.81-13.77-1.03-5.4-2.27-10.47-2.76-11.27-1.7-2.76-18.59-90.62-21.52-112.01-3.67-26.71-6.27-40.33-9.84-51.56-1.54-4.83-4.05-19.53-5.59-32.68-2.62-22.43-3.45-25.24-13.47-45.68-5.87-11.98-11.28-25.07-12.01-29.1-1.52-8.29-4.02-10.93-5.53-5.84-3.35 11.24-6.96 40.15-7.95 63.72-.63 14.97-2.13 32.55-3.33 39.06-1.88 10.18-1.69 13.17 1.32 21.39 2.91 7.94 3.6 17.02 4.07 53.74.31 24.3 1.53 54.49 2.71 67.1 2.53 27.09 3.94 65.92 2.6 71.83-.71 3.16-4.43 5.42-15.19 9.24-7.84 2.78-15.65 5.06-17.35 5.06s-6.37 1.75-10.36 3.89c-12.64 6.77-29.44 4.75-33.32-4.01-3.35-7.58-1.42-12.5 6.37-16.19 3.57-1.69 9.66-6.59 13.55-10.89 6.72-7.43 7.08-8.54 7.48-22.88.67-24.04.44-27.23-4.01-55.65-2.32-14.84-5.09-37.59-6.14-50.57-2.88-35.5-7.53-83.75-11.73-121.8-2.06-18.72-4.31-39.72-4.98-46.67-.67-6.95-2.6-14.82-4.27-17.48-1.92-3.04-2.86-8.29-2.55-14.14.61-11.54-1.4-21.33-4.05-19.7-1.17.73-1.71 7.31-1.3 16.06.56 12.15.16 14.83-2.22 14.83-1.6 0-4.3-2.97-6.01-6.59-2.27-4.82-3.42-5.78-4.26-3.59-1.7 4.43.55 11.41 5.7 17.62 5.3 6.4 5.91 10.03 1.39 8.29-1.74-.67-7.01-2.18-11.7-3.36C11.01 450.04 1.1 441.4.98 436.19c-1.8-74.78-1.1-116.97 2.21-137.44 1.99-12.3 3.66-28.05 3.7-35.01.05-6.95.93-19.21 1.96-27.23 1.03-8.02 2.75-28.89 3.84-46.38 1.86-29.87 3.66-39.19 7.59-39.19.92 0 5.99-2.98 11.28-6.61 5.29-3.64 14.8-9.24 21.13-12.46 6.33-3.21 14.09-8.55 17.23-11.86 3.14-3.31 6.43-6.02 7.29-6.02s1.58 11.28 1.58 25.06c0 15.98 1.01 28.49 2.77 34.52 1.53 5.2 3.53 12.52 4.45 16.27.94 3.81 2.89 6.81 4.45 6.81 1.43-21.38.63-25.31 4.87-45.39 6.27-13.47 5.08-20.54-3.17-18.73-6.89 1.51-7.42-1.69-.98-5.9 5.44-3.56 22.1-5.89 29.29-4.08l5.05 1.27-6.83 6.83c-7.85 7.85-8.55 6.58-3.1 23.88 4.4 10.27 6.46 55.13 11.93 30 1.89-8.94 3.86-17.86 5.89-26.77 4.14-18.11 5.39-39.21 3.04-51.26l-1.65-8.48 12.36 6.83c7.79 4.31 19.56 8.43 31.82 11.17 26.03 5.8 37.08 10.57 39.61 17.11 1.1 2.85 3.36 12.18 5.01 20.74 12.37 64.18 16.71 119.97 12.86 165.14-1.37 16.14-2.72 40.18-2.99 53.43-.41 19.89-1.04 24.4-3.66 25.87-1.98 1.11-3.16 4.31-3.16 8.54 0 9.95-4.74 19.59-11.29 22.98-6.69 3.46-8.81 9.64-6.3 18.38.98 3.4 1.91 16.02 2.08 28.04.16 12.02 1.13 26.87 2.15 33.01 1.26 7.58 1.17 13.69-.27 19.04-1.76 6.53-1.43 10.45 1.93 22.88 2.23 8.25 6.1 20.25 8.62 26.66 7.39 18.85 15.55 80.54 19.68 148.78 1.61 26.55 3.77 33.21 14.87 45.9 8.7 9.95 9.57 11.77 8.97 19.02l-.67 8.01-12.59.41c-9.65.31-14.64-.6-21.34-3.89ZM93.96 113.97c-8.69-5.76-14.45-12.92-22.69-28.22-2.29-4.25-5.93-9.94-8.09-12.63-4.05-5.06-4.2-6.52-3.19-31.08.74-17.95 5.61-28.31 16.76-35.69 11.61-7.68 17.01-8.17 29.48-2.66C119.55 9.58 124.57 15.76 127.6 30c1.3 6.08 3.61 12.09 5.14 13.34 1.53 1.26 3.25 5.75 3.82 9.99.84 6.24.2 8.53-3.33 12.06-3.93 3.93-4.26 5.72-3.35 18.21l1.01 13.86-11.15 11.18c-6.13 6.15-12.45 11.18-14.05 11.18s-6.88-2.64-11.74-5.86Z" />
</svg>