<svg xmlns="http://www.w3.org/2000/svg" width="20" height="20"
  xmlns:xlink="http://www.w3.org/1999/xlink"
  viewBox="0 0 20 20">
  <defs>
    <linearGradient id="a" x1="292.68" x2="302.31" y1="-393.76" y2="-393.76"
      gradientTransform="matrix(1 0 0 -1 -287.64 -388.94)" gradientUnits="userSpaceOnUse">
      <stop offset="0" stop-color="#ee0979" />
      <stop offset="1" stop-color="#ff6a00" />
    </linearGradient>
    <linearGradient xlink:href="#a" id="b" x1="289.28" x2="305.96" y1="-403.78" y2="-403.78" />
  </defs>

  <path
    d="M9.86 9.63c1.32 0 2.47-.48 3.41-1.41.94-.94 1.41-2.08 1.41-3.41s-.47-2.47-1.41-3.41S11.19-.01 9.86-.01 7.39.46 6.45 1.4 5.04 3.48 5.04 4.81s.47 2.47 1.41 3.41 2.08 1.41 3.41 1.41Z"
    fill="#42204e" />
  <path
    d="M18.29 15.38c-.03-.39-.08-.81-.16-1.26-.08-.43-.18-.85-.31-1.27a6.22 6.22 0 0 0-.52-1.18c-.21-.38-.48-.72-.79-1.03-.33-.31-.71-.55-1.13-.71-.46-.18-.95-.27-1.44-.26-.2 0-.4.08-.78.33-.23.15-.51.33-.82.53-.26.17-.62.32-1.06.47a4.054 4.054 0 0 1-2.58 0c-.44-.14-.79-.3-1.05-.47-.3-.19-.58-.37-.82-.53-.38-.25-.58-.33-.78-.33-.52 0-1.01.09-1.44.26-.42.16-.8.4-1.13.71-.3.28-.56.63-.79 1.03-.22.38-.39.78-.52 1.18-.12.39-.23.82-.31 1.27-.08.45-.13.87-.16 1.26-.03.38-.04.78-.04 1.18 0 1.04.33 1.89.99 2.51.65.61 1.5.93 2.54.93h9.61c1.04 0 1.9-.31 2.54-.93.66-.62.99-1.47.99-2.51 0-.4-.01-.8-.04-1.18Z"
    fill="#42204e" />
</svg>