<svg xmlns="http://www.w3.org/2000/svg" viewBox="0 0 1083 990">
  <defs>
    <linearGradient id="a" x1="0" x2="1083" y1="496.98" y2="496.98"
      gradientTransform="matrix(1 0 0 -1 0 991.98)" gradientUnits="userSpaceOnUse">
      <stop offset="0" stop-color="#ee0979" />
      <stop offset="1" stop-color="#ff6a00" />
    </linearGradient>
  </defs>
  <path
    d="M610.68.67c98.06 7.74 169.74 86.1 249.33 143.89 79.61 57.81 182.03 99.55 214.06 192.57 32.17 93.45-31.57 187.78-49.65 284.93-21.83 117.25 32.35 276.75-67.17 342.51-100.74 66.57-225.83-70.93-346.57-69.13-124.02 1.85-245.39 139.16-354.17 79.59-106.15-58.13-71.86-221.82-113.22-335.54C99.74 519.72-33.99 412.19 8.08 291.9c42.21-120.68 207.78-133.48 322.91-189.13C422.59 58.5 509.26-7.34 610.68.67Z"
    fill="url(#a)"
    fill-rule="evenodd"
  />
</svg>