<svg xmlns="http://www.w3.org/2000/svg" viewBox="0 0 1000 822">
  <defs>
    <linearGradient id="a" x1="0" x2="1000" y1="413" y2="413"
      gradientTransform="matrix(1 0 0 -1 0 824)" gradientUnits="userSpaceOnUse">
      <stop offset="0" stop-color="#ee0979" />
      <stop offset="1" stop-color="#ff6a00" />
    </linearGradient>
  </defs>
  <path
    d="M500.81 2.7c82.23 6.87 155.4 39.5 228.83 77.15 88.04 45.14 195.29 74.31 239.38 162.9 45.95 92.33 38.74 209.88-8.13 301.75-44.16 86.58-147.42 116.22-230.66 166.35-74.57 44.92-142.59 116.9-229.42 110.77-85.48-6.04-144.33-83.16-207.04-141.59-54.81-51.07-91.49-111.99-132.44-174.74-58.94-90.33-177.89-166.21-159.4-272.5 18.09-103.97 144.7-149.45 240.5-193.63C323.4 1.81 411.96-4.72 500.81 2.7Z"
    fill="url(#a)"
    fill-rule="evenodd"
  />
</svg>