<svg xmlns="http://www.w3.org/2000/svg" width="1000" height="822" fill="none">
  <path fill="url(#a)" fill-rule="evenodd"
    d="M500.814 2.702c82.225 6.868 155.401 39.504 228.831 77.152 88.036 45.137 195.286 74.309 239.376 162.902 45.949 92.333 38.739 209.88-8.129 301.752-44.165 86.579-147.421 116.216-230.659 166.354-74.57 44.917-142.591 116.901-229.419 110.771-85.481-6.036-144.333-83.157-207.04-141.588-54.807-51.07-91.495-111.995-132.437-174.74C102.386 414.96-16.56 339.078 1.931 232.785 20.017 128.819 146.635 83.338 242.429 39.159 323.402 1.814 411.96-4.721 500.814 2.702Z"
    clip-rule="evenodd" />
  <defs>
    <linearGradient id="a" x1="0" x2="1000" y1="411" y2="411" gradientUnits="userSpaceOnUse">
      <stop stop-color="#EE0979" />
      <stop offset="1" stop-color="#FF6A00" />
    </linearGradient>
  </defs>
</svg>