<svg xmlns="http://www.w3.org/2000/svg" width="1084" height="991" fill="none">
  <path fill="url(#a)" fill-rule="evenodd"
    d="M610.799.678c98.064 7.744 169.737 86.095 249.331 143.887 79.613 57.805 182.03 99.553 214.06 192.568 32.17 93.446-31.57 187.776-49.65 284.934-21.83 117.249 32.35 276.754-67.168 342.512-100.742 66.571-225.83-70.934-346.573-69.131-124.024 1.851-245.385 139.162-354.173 79.59-106.147-58.128-71.862-221.824-113.217-335.542C99.856 519.732-33.871 412.203 8.199 291.91c42.206-120.684 207.78-133.483 322.909-189.125C422.709 58.515 509.374-7.332 610.799.678Z"
    clip-rule="evenodd" />
  <defs>
    <linearGradient id="a" x1=".116" x2="1083.12" y1="495.01" y2="495.01"
      gradientUnits="userSpaceOnUse">
      <stop stop-color="#EE0979" />
      <stop offset="1" stop-color="#FF6A00" />
    </linearGradient>
  </defs>
</svg>