<svg xmlns="http://www.w3.org/2000/svg" width="20" height="20" fill="none">
  <g fill="#727272" clip-path="url(#a)">
    <path
      d="M14.767.808H5.232A5.052 5.052 0 0 0 .186 5.854v8.292a5.052 5.052 0 0 0 5.046 5.046h9.535a5.052 5.052 0 0 0 5.046-5.046V5.854A5.052 5.052 0 0 0 14.767.808Zm3.171 13.338a3.175 3.175 0 0 1-3.171 3.171H5.232a3.175 3.175 0 0 1-3.171-3.171V5.854a3.175 3.175 0 0 1 3.171-3.171h9.535a3.175 3.175 0 0 1 3.171 3.171v8.292Z" />
    <path
      d="M13.952 5.99a.937.937 0 0 0-1.326.01L10 8.664 7.375 6a.937.937 0 1 0-1.336 1.316L8.684 10 6.04 12.684A.937.937 0 1 0 7.375 14L10 11.336 12.626 14a.935.935 0 0 0 1.325.01.937.937 0 0 0 .01-1.325L11.316 10l2.645-2.684a.937.937 0 0 0-.01-1.326Z" />
  </g>
  <defs>
    <clipPath id="a">
      <path fill="#fff" d="M0 0h20v20H0z" />
    </clipPath>
  </defs>
</svg>