<svg xmlns="http://www.w3.org/2000/svg" width="20" height="20" fill="none">
  <path fill="#42204E"
    d="M2.651.63C1.604.556.63 1.394.63 2.5v15.029c0 1.05.88 1.909 1.932 1.875h.005c.179-.007.36-.038.535-.096l3.752-1.254a1.88 1.88 0 0 0 1.285-1.779v-1.88h-.623c-1.707 0-3.134-1.427-3.134-3.134V8.761c0-1.706 1.427-3.129 3.134-3.128h.623V3.757c0-.808-.521-1.529-1.285-1.784L3.101.72c-.15-.05-.3-.078-.45-.09Zm10.017 3.765a1.95 1.95 0 0 0-.977.207c-.6.3-1.054.9-1.054 1.654v.629H7.515A1.89 1.89 0 0 0 5.633 8.76v2.5c0 1.03.852 1.881 1.882 1.881h3.122v.623c0 1.51 1.801 2.413 3.01 1.507l5.008-3.757a1.88 1.88 0 0 0 0-3.003l-5.009-3.757a1.785 1.785 0 0 0-.978-.36Z" />
</svg>