<svg xmlns="http://www.w3.org/2000/svg" width="20" height="20" viewBox="0 0 20 20">
  <path
    fill="#8b5d9a"
    d=" M19.85,9.61c-.12-.13-2.07-2.26-4.96-3.67l1.47-1.47c.11-.11,.17-.26,.17-.41,0-.32-.25-.59-.58-.59-.16,0-.31,.06-.42,.17l-1.8,1.8c-1.15-.43-2.41-.71-3.73-.71C4.62,4.73,.33,9.41,.15,9.61c-.2,.22-.2,.56,0,.78,.12,.13,2.07,2.26,4.96,3.67l-1.47,1.47c-.11,.11-.17,.26-.17,.41,0,.32,.25,.59,.58,.59,.16,0,.31-.06,.42-.17l1.8-1.8c1.15,.43,2.41,.71,3.73,.71,5.38,0,9.67-4.68,9.85-4.88,.2-.22,.2-.56,0-.78Zm-9.85,4.49c-.92,0-1.77-.3-2.45-.82-.32-.23-.6-.51-.83-.83-.52-.68-.82-1.53-.82-2.45,0-2.26,1.84-4.1,4.1-4.1,.92,0,1.77,.3,2.45,.82,.32,.23,.6,.51,.83,.83,.52,.68,.82,1.53,.82,2.45,0,2.26-1.84,4.1-4.1,4.1Z" />

  <path
    fill="#8b5d9a"
    d="M10.61,8.83c0-.59,.29-1.11,.74-1.43-.4-.2-.85-.33-1.32-.33-1.62,0-2.93,1.31-2.93,2.93s1.31,2.93,2.93,2.93c1.42,0,2.64-1.03,2.88-2.44-.92,.3-1.92-.21-2.21-1.13-.06-.17-.08-.35-.09-.53Z" />
</svg>