<svg xmlns="http://www.w3.org/2000/svg" fill="none" viewBox="0 0 60 60">
  <g clip-path="url(#a)">
    <path fill="url(#b)"
      d="M20.937 13.945c.831 1.519 2.1 2.713 3.219 3.765.186.176.371.35.552.523.694.667 1.393 1.306 2.068 1.923.66.604 1.342 1.228 2.006 1.865a1.76 1.76 0 0 0 2.436 0c.664-.637 1.346-1.26 2.005-1.864.676-.617 1.374-1.256 2.07-1.924.18-.173.365-.347.551-.522 1.12-1.053 2.388-2.247 3.219-3.766 1.154-2.11 1.115-4.559-.103-6.549-1.198-1.957-3.06-3.044-5.243-3.06a6.767 6.767 0 0 0-3.67 1.06l-.004.002a.081.081 0 0 1-.086 0 6.789 6.789 0 0 0-3.624-1.062h-.05c-2.183.016-4.045 1.103-5.243 3.06-1.218 1.99-1.257 4.439-.103 6.549Z" />
    <path fill="url(#c)"
      d="M56.079 37.103a3.921 3.921 0 0 1-3.921-3.921v-2.034c0-5.65-4.597-10.247-10.247-10.247-4.831 0-8.892 3.362-9.967 7.869-.22.925-.993 1.669-1.944 1.669s-1.723-.744-1.944-1.67c-1.075-4.506-5.136-7.867-9.967-7.867-5.65 0-10.247 4.596-10.247 10.246v2.034a3.921 3.921 0 0 1-3.92 3.921A3.921 3.921 0 0 0 0 41.024v2.428c0 4.55 3.701 8.252 8.251 8.252a.5.5 0 0 1 .5.498v1.609a1.758 1.758 0 0 0 3.515 0v-.625a1.483 1.483 0 1 1 2.966 0v.625a1.758 1.758 0 0 0 3.515 0v-.233c0-1.06.838-1.912 1.867-2.164 4.427-1.083 7.722-5.084 7.722-9.84V35.62a1.664 1.664 0 0 1 3.328 0v5.955c0 4.756 3.295 8.757 7.722 9.84 1.029.252 1.867 1.105 1.867 2.164v.233a1.758 1.758 0 0 0 3.515 0v-.625a1.483 1.483 0 1 1 2.966 0v.625a1.758 1.758 0 0 0 3.516 0v-1.608a.5.5 0 0 1 .499-.5c4.55 0 8.251-3.701 8.251-8.25v-2.429a3.921 3.921 0 0 0-3.921-3.92Zm-34.487 2.721a5.327 5.327 0 0 1-5.321 5.322h-1.426a1.758 1.758 0 0 1 0-3.516h1.426c.995 0 1.805-.81 1.805-1.806 0-.97.787-1.765 1.758-1.765.97 0 1.758.795 1.758 1.766Zm0-8.992a1.758 1.758 0 1 1-3.516 0 1.758 1.758 0 0 1 3.516 0Zm16.816 0a1.758 1.758 0 1 1 3.516 0 1.758 1.758 0 0 1-3.516 0Zm8.505 12.556c0 .971-.787 1.758-1.758 1.758h-1.426a5.327 5.327 0 0 1-5.32-5.322c0-.97.786-1.765 1.757-1.765.97 0 1.758.795 1.758 1.766 0 .996.81 1.805 1.805 1.805h1.426c.97 0 1.758.787 1.758 1.758Z" />
  </g>
  <defs>
    <linearGradient id="b" x1="20.098" x2="39.902" y1="13.763" y2="13.763"
      gradientUnits="userSpaceOnUse">
      <stop offset="0" stop-color="#EE0979" />
      <stop offset="1" stop-color="#FF6A00" />
    </linearGradient>
    <linearGradient id="c" x2="60" y1="38.235" y2="38.235" gradientUnits="userSpaceOnUse">
      <stop offset="0" stop-color="#EE0979" />
      <stop offset="1" stop-color="#FF6A00" />
    </linearGradient>
    <clipPath id="a">
      <path fill="#fff" d="M0 0h60v60H0z" />
    </clipPath>
  </defs>
</svg>