<svg xmlns="http://www.w3.org/2000/svg" viewBox="0 0 40 40">
  <path
    d="M40 20c0 5.52-2.24 10.52-5.86 14.14l-.11.11C30.42 37.8 25.46 40 20 40S9.58 37.8 5.97 34.25l-.11-.11C2.24 30.52 0 25.52 0 20S2.24 9.48 5.86 5.86C9.48 2.24 14.48 0 20 0c11.05 0 20 8.95 20 20Z"
    style="fill:#925fa4" />
  <path
    d="M20 26c2.12 0 4.16-.84 5.66-2.34S28 20.12 28 18s-.84-4.16-2.34-5.66S22.12 10 20 10s-4.16.84-5.66 2.34S12 15.88 12 18s.84 4.16 2.34 5.66S17.88 26 20 26Zm14.03 8.25C30.42 37.8 25.46 40 20 40S9.58 37.8 5.97 34.25C7.8 29.99 12.02 27 16.94 27h6.12c4.92 0 9.14 2.99 10.97 7.25Z"
    style="fill:#230e2b" />
</svg>