<svg xmlns="http://www.w3.org/2000/svg" width="20" height="20" fill="none">
  <g fill="#8B5D9A">
    <path
      d="M10.24.047c4.146.027 7.295 4.026 5.725 7.831-1.224 2.968-3.223 5.62-4.944 8.372-.483.775-1.27.627-1.717-.06-1.607-2.483-3.523-4.855-4.618-7.556C2.693 3.734 6.021.124 10.24.047Zm-.312 14.23.555.028c1.24-2.18 2.56-4.316 3.687-6.553.85-1.692.386-3.416-.976-4.73-1.345-1.297-3.432-1.57-5.076-.664-1.48.814-2.966 2.693-2.327 4.54.924 2.676 2.691 4.938 4.137 7.38Z" />
    <path
      d="M3.069 18.142h14.01c-.758-1.12-1.479-2.035-2.01-3.048-.217-.411-.03-1.03-.026-1.557.487.175 1.156.205 1.428.552 1.014 1.272 1.926 2.632 2.812 3.998.803 1.232.478 1.888-.962 1.894-4.993.027-11.587.026-16.58-.01C.53 19.966.16 19.274.82 18.233a54.435 54.435 0 0 1 2.976-4.25c.233-.3.876-.284 1.33-.413.026.485.24 1.074.04 1.438-.56 1.021-1.287 1.949-2.097 3.134ZM10.234 8.983a2.653 2.653 0 0 1-2.65-2.65 2.653 2.653 0 0 1 2.65-2.65 2.653 2.653 0 0 1 2.65 2.65 2.653 2.653 0 0 1-2.65 2.65Zm0-4.131c-.817 0-1.481.665-1.481 1.481 0 .816.664 1.481 1.48 1.481.817 0 1.482-.665 1.482-1.481 0-.816-.665-1.481-1.481-1.481Z" />
  </g>
</svg>