<svg xmlns="http://www.w3.org/2000/svg" width="20" height="20" fill="none">
  <g clip-path="url(#a)">
    <path fill="#EF9645"
      d="M2.7 5.082c.523-.365 1.31-.295 1.78.092l-.539-.782c-.432-.617-.277-1.285.34-1.718.618-.432 2.369.729 2.369.729-.437-.624-.355-1.414.268-1.85a1.38 1.38 0 0 1 1.92.339l5.789 8.177-.738 7.153-6.157-2.245-5.37-7.963A1.386 1.386 0 0 1 2.7 5.082Z" />
    <path fill="#FFDC5D"
      d="M1.497 9.631s-.628-.917.289-1.545c.916-.628 1.544.288 1.544.288l2.917 4.254c.101-.167.211-.333.334-.496L2.53 6.228s-.627-.916.29-1.545c.915-.628 1.544.288 1.544.288l3.808 5.554c.142-.116.287-.232.436-.346L4.194 3.74s-.628-.916.288-1.544c.917-.629 1.545.287 1.545.287l4.415 6.439c.162-.1.323-.186.484-.277L6.799 2.627s-.628-.916.288-1.544c.916-.629 1.544.288 1.544.288l4.364 6.363.663.968c-2.749 1.885-3.01 5.432-1.44 7.723.314.458.772.144.772.144-1.885-2.749-1.31-5.838 1.44-7.723l-.81-4.057s-.303-1.069.765-1.372c1.07-.303 1.372.766 1.372.766l.937 2.78c.37 1.102.766 2.2 1.288 3.24a6.669 6.669 0 0 1-2.188 8.488 6.669 6.669 0 0 1-9.27-1.728L1.498 9.63Z" />
    <path fill="#5DADEC"
      d="M6.667 17.801c-2.222 0-4.468-2.245-4.468-4.468 0-.307-.225-.555-.532-.555-.307 0-.58.248-.58.555 0 3.334 2.246 5.58 5.58 5.58.307 0 .555-.273.555-.58 0-.307-.248-.532-.555-.532Z" />
    <path fill="#5DADEC"
      d="M3.889 18.889c-1.667 0-2.778-1.111-2.778-2.778a.555.555 0 1 0-1.111 0C0 18.333 1.667 20 3.889 20a.555.555 0 1 0 0-1.111ZM13.333 1.11a.556.556 0 0 0 0 1.111c2.223 0 4.445 1.994 4.445 4.445a.556.556 0 0 0 1.11 0c0-3.064-2.221-5.556-5.555-5.556Z" />
    <path fill="#5DADEC"
      d="M16.11.023c-.306 0-.555.226-.555.533 0 .306.249.578.555.578 1.667 0 2.755 1.237 2.755 2.755 0 .307.271.555.579.555.307 0 .532-.248.532-.555 0-2.132-1.643-3.866-3.866-3.866Z" />
  </g>
  <defs>
    <clipPath id="a">
      <path fill="#fff" d="M0 0h20v20H0z" />
    </clipPath>
  </defs>
</svg>