<svg xmlns="http://www.w3.org/2000/svg" width="20" height="20" viewBox="0 0 20 20">
  <path
    d="M19.85 9.61c-.18-.2-4.47-4.88-9.85-4.88S.33 9.41.15 9.61c-.2.22-.2.56 0 .78.18.2 4.47 4.88 9.85 4.88s9.67-4.68 9.85-4.88c.2-.22.2-.56 0-.78ZM10 14.1c-2.26 0-4.1-1.84-4.1-4.1S7.74 5.9 10 5.9s4.1 1.84 4.1 4.1-1.84 4.1-4.1 4.1Z"
    fill="#8b5d9a"
  />
  <path
    d="M10.61 8.83c0-.59.29-1.11.74-1.43-.4-.2-.85-.33-1.32-.33C8.41 7.07 7.1 8.38 7.1 10s1.31 2.93 2.93 2.93c1.42 0 2.64-1.03 2.88-2.44-.92.3-1.92-.21-2.21-1.13a1.9 1.9 0 0 1-.09-.53Z"
    fill="#8b5d9a"
  />
</svg>