<svg xmlns="http://www.w3.org/2000/svg" width="20" height="20" fill="none">
  <path fill="#8B5D9A"
    d="M9.874 9.634c1.323 0 2.47-.475 3.406-1.411.936-.937 1.411-2.082 1.411-3.406 0-1.323-.475-2.47-1.411-3.406C12.343.475 11.197 0 9.874 0 8.55 0 7.404.475 6.468 1.411c-.937.937-1.411 2.082-1.411 3.406 0 1.324.474 2.47 1.41 3.406.938.936 2.084 1.411 3.407 1.411ZM7.297 2.24c.718-.719 1.561-1.068 2.577-1.068 1.015 0 1.858.35 2.577 1.068.719.719 1.068 1.562 1.068 2.577 0 1.016-.35 1.858-1.068 2.577-.719.719-1.562 1.068-2.577 1.068s-1.858-.35-2.577-1.068c-.719-.718-1.068-1.561-1.068-2.577 0-1.015.35-1.858 1.068-2.577ZM18.303 15.379c-.027-.39-.082-.815-.162-1.264a9.943 9.943 0 0 0-.311-1.27 6.278 6.278 0 0 0-.523-1.185 4.468 4.468 0 0 0-.787-1.027 3.472 3.472 0 0 0-1.132-.71 3.91 3.91 0 0 0-1.444-.262c-.204 0-.402.084-.783.332-.235.153-.51.33-.816.526-.262.167-.617.323-1.055.465a4.19 4.19 0 0 1-1.29.208c-.43 0-.863-.07-1.291-.208-.438-.142-.793-.298-1.055-.465-.303-.194-.578-.371-.816-.526-.381-.248-.579-.332-.783-.332-.52 0-1.006.088-1.444.261a3.47 3.47 0 0 0-1.132.711c-.297.285-.562.63-.787 1.027-.217.382-.393.78-.522 1.185-.125.39-.23.818-.311 1.27-.08.449-.135.874-.162 1.264-.027.382-.04.78-.04 1.182 0 1.044.332 1.889.986 2.512.647.615 1.502.927 2.542.927h9.63c1.04 0 1.895-.312 2.542-.927.654-.623.986-1.468.986-2.513 0-.403-.014-.8-.04-1.181Zm-1.755 2.845c-.427.406-.994.604-1.733.604h-9.63c-.74 0-1.307-.198-1.734-.604-.418-.399-.622-.943-.622-1.663 0-.375.012-.745.037-1.1.024-.349.073-.732.147-1.139a8.8 8.8 0 0 1 .273-1.12 5.12 5.12 0 0 1 .425-.963 3.31 3.31 0 0 1 .579-.759c.2-.192.454-.35.752-.468.276-.11.587-.169.923-.178.041.022.115.064.233.14.24.158.519.337.826.533.346.22.792.42 1.324.592.545.176 1.1.265 1.652.265.55 0 1.106-.09 1.65-.265.534-.172.98-.371 1.326-.592.314-.201.584-.375.825-.532.118-.077.192-.12.233-.141.337.009.647.069.923.178.298.118.552.276.752.468.215.206.41.46.58.759.177.312.32.636.425.963.109.342.201.719.273 1.12.073.408.122.79.147 1.139.024.354.037.724.037 1.1 0 .72-.204 1.264-.622 1.663Z" />
</svg>